<?xml version="1.0" encoding="utf-8"?>
<!-- Generator: Adobe Illustrator 18.1.1, SVG Export Plug-In . SVG Version: 6.00 Build 0)  -->
<svg version="1.1" xmlns="http://www.w3.org/2000/svg" xmlns:xlink="http://www.w3.org/1999/xlink" x="0px" y="0px" width="300px"
	 height="63.3px" viewBox="0 0 300 63.3" style="enable-background:new 0 0 300 63.3;" xml:space="preserve">
<style type="text/css">
	.st0{fill:#0075FF;}
	.st1{fill:#00458F;}
</style>
<g id="Layer_1">
	<path d="M27.2,55.5c-0.6,0.8-1.2,1.5-2,2.2c-0.8,0.7-1.7,1.3-2.6,1.8c-1,0.5-2,0.9-3.1,1.2c-1.1,0.3-2.3,0.4-3.5,0.4
		c-2,0-3.8-0.3-5.5-1c-1.7-0.7-3.1-1.6-4.3-2.9c-1.2-1.2-2.1-2.7-2.8-4.4s-1-3.5-1-5.5c0-2,0.3-3.8,1-5.5c0.7-1.7,1.6-3.2,2.8-4.4
		c1.2-1.3,2.6-2.2,4.3-3c1.7-0.7,3.5-1.1,5.6-1.1c2.5,0,4.6,0.5,6.5,1.3c1.8,0.9,3.4,2.2,4.6,3.9l-4.1,3.9c-0.8-1.1-1.7-2-2.8-2.7
		c-1.1-0.7-2.4-1-3.9-1c-1.2,0-2.3,0.2-3.2,0.7c-1,0.4-1.8,1-2.4,1.8C9.9,42,9.4,42.9,9,43.9c-0.4,1-0.5,2.1-0.5,3.2
		c0,1.2,0.2,2.2,0.5,3.3c0.4,1,0.9,1.9,1.5,2.6c0.7,0.7,1.5,1.3,2.4,1.7c0.9,0.4,2,0.6,3.1,0.6c1,0,1.8-0.1,2.5-0.3
		c0.7-0.2,1.3-0.5,1.9-0.8c0.5-0.3,1-0.7,1.5-1.2c0.4-0.4,0.8-0.9,1.2-1.3L27.2,55.5z"/>
	<path d="M38.5,56.1c0.7,0,1.4-0.1,1.9-0.4c0.6-0.3,1-0.7,1.4-1.1c0.4-0.5,0.7-1,0.9-1.6c0.2-0.6,0.3-1.2,0.3-1.8
		c0-0.6-0.1-1.3-0.3-1.8c-0.2-0.6-0.5-1.1-0.9-1.6c-0.4-0.5-0.9-0.8-1.4-1.1c-0.6-0.3-1.2-0.4-1.9-0.4c-0.7,0-1.4,0.1-1.9,0.4
		c-0.6,0.3-1,0.6-1.4,1.1c-0.4,0.5-0.7,1-0.9,1.6c-0.2,0.6-0.3,1.2-0.3,1.8c0,0.6,0.1,1.2,0.3,1.8c0.2,0.6,0.5,1.1,0.9,1.6
		c0.4,0.5,0.8,0.9,1.4,1.1C37.1,55.9,37.8,56.1,38.5,56.1 M28.5,51.1c0-1.4,0.2-2.7,0.7-3.9c0.5-1.2,1.2-2.3,2-3.2
		c0.9-0.9,1.9-1.6,3.2-2.1c1.2-0.5,2.6-0.8,4.1-0.8c1.5,0,2.8,0.3,4,0.8c1.2,0.5,2.3,1.2,3.1,2.1c0.9,0.9,1.6,2,2,3.2
		c0.5,1.2,0.7,2.5,0.7,3.9c0,1.4-0.2,2.7-0.7,3.9c-0.5,1.2-1.2,2.3-2,3.2c-0.9,0.9-1.9,1.6-3.1,2.1c-1.2,0.5-2.6,0.8-4,0.8
		c-1.5,0-2.8-0.3-4.1-0.8c-1.2-0.5-2.3-1.2-3.2-2.1c-0.9-0.9-1.6-1.9-2-3.2C28.7,53.7,28.5,52.5,28.5,51.1"/>
	<path d="M51.2,41.8h5.5l0.2,2.1c0.6-0.7,1.3-1.3,2.2-1.8c0.9-0.5,2-0.7,3.2-0.7c0.7,0,1.4,0.1,2,0.2c0.6,0.2,1.1,0.4,1.5,0.6
		c0.4,0.3,0.8,0.5,1.2,0.8c0.3,0.3,0.6,0.6,0.8,0.9c0.8-0.8,1.7-1.5,2.8-1.9c1.1-0.5,2.2-0.7,3.4-0.7c2.4,0,4.2,0.7,5.5,2
		c1.3,1.4,1.9,3.2,1.9,5.5v11.5h-5.7V49.8c0-1.1-0.2-2-0.7-2.6c-0.5-0.6-1.2-0.9-2.2-0.9c-1.1,0-2,0.4-2.7,1.1c-0.7,0.8-1,1.7-1,2.9
		v10h-5.5V49.8c0-1.1-0.2-2-0.7-2.6c-0.5-0.6-1.2-0.9-2.2-0.9c-1.1,0-2,0.4-2.6,1.1c-0.7,0.8-1,1.7-1,2.9v10h-5.7V41.8z"/>
	<path d="M84.9,41.8h5.5l0.2,2.1c0.6-0.7,1.3-1.3,2.2-1.8c0.9-0.5,2-0.7,3.2-0.7c0.7,0,1.4,0.1,2,0.2c0.6,0.2,1.1,0.4,1.5,0.6
		c0.4,0.3,0.8,0.5,1.1,0.8c0.3,0.3,0.6,0.6,0.8,0.9c0.8-0.8,1.7-1.5,2.8-1.9c1.1-0.5,2.2-0.7,3.4-0.7c2.4,0,4.2,0.7,5.5,2
		c1.3,1.4,1.9,3.2,1.9,5.5v11.5h-5.7V49.8c0-1.1-0.2-2-0.7-2.6c-0.5-0.6-1.2-0.9-2.2-0.9c-1.1,0-2,0.4-2.7,1.1c-0.7,0.8-1,1.7-1,2.9
		v10h-5.5V49.8c0-1.1-0.2-2-0.7-2.6c-0.5-0.6-1.2-0.9-2.2-0.9c-1.1,0-2,0.4-2.6,1.1c-0.7,0.8-1,1.7-1,2.9v10h-5.7V41.8z"/>
	<path d="M131.1,49.1c0-0.4-0.1-0.8-0.2-1.2c-0.2-0.4-0.4-0.8-0.7-1.1c-0.3-0.3-0.7-0.6-1.2-0.9c-0.5-0.2-1-0.3-1.7-0.3
		c-0.7,0-1.2,0.1-1.7,0.3c-0.5,0.2-0.9,0.5-1.2,0.9c-0.3,0.3-0.6,0.7-0.8,1.1c-0.2,0.4-0.3,0.8-0.3,1.2H131.1z M136.1,58.4
		c-0.2,0.1-0.5,0.4-1,0.7c-0.4,0.3-1,0.6-1.6,0.9c-0.7,0.3-1.5,0.5-2.4,0.8c-0.9,0.2-2,0.3-3.2,0.3c-1.6,0-3-0.2-4.3-0.7
		c-1.3-0.5-2.3-1.2-3.2-2c-0.9-0.9-1.6-1.9-2-3.2c-0.5-1.2-0.7-2.6-0.7-4.1c0-1.3,0.2-2.5,0.7-3.8c0.4-1.2,1.1-2.3,1.9-3.2
		c0.8-0.9,1.8-1.6,3-2.2c1.2-0.5,2.5-0.8,4-0.8c1.5,0,2.8,0.3,4,0.8c1.1,0.5,2.1,1.3,2.9,2.2c0.8,0.9,1.4,2.1,1.8,3.4
		c0.4,1.3,0.6,2.7,0.6,4.3v1h-13.3c0,1,0.5,1.9,1.3,2.6c0.9,0.8,2,1.1,3.6,1.1c1.5,0,2.7-0.2,3.6-0.7c0.9-0.4,1.6-0.8,2-1.1
		L136.1,58.4z"/>
	<path d="M139.3,41.8h5.5l0.2,2.3c0.5-0.6,1.1-1.2,2-1.8c0.8-0.6,1.9-0.9,3.2-0.9c0.5,0,0.9,0,1.3,0.1c0.4,0.1,0.7,0.1,1.1,0.3
		l-0.9,5c-0.6-0.2-1.3-0.3-2.1-0.3c-1.3,0-2.4,0.4-3.3,1.2c-0.8,0.8-1.3,2-1.3,3.4v9.2h-5.7V41.8z"/>
	<path d="M170.6,57.9c-0.8,0.8-1.8,1.6-3,2.2c-1.3,0.6-2.7,0.9-4.5,0.9c-1.5,0-2.9-0.2-4.1-0.7c-1.2-0.5-2.3-1.2-3.2-2.1
		c-0.9-0.9-1.6-1.9-2-3.2c-0.5-1.2-0.7-2.6-0.7-4c0-1.4,0.3-2.7,0.8-3.9c0.5-1.2,1.2-2.3,2.1-3.2c0.9-0.9,1.9-1.6,3.2-2.1
		c1.2-0.5,2.6-0.8,4-0.8c1.7,0,3.2,0.3,4.4,0.8c1.2,0.6,2.3,1.3,3.1,2.2l-3.5,3.7c-0.4-0.5-0.9-0.9-1.6-1.3
		c-0.6-0.4-1.4-0.6-2.4-0.6c-0.7,0-1.3,0.1-1.8,0.4c-0.5,0.3-1,0.6-1.4,1.1c-0.4,0.4-0.7,1-0.9,1.6c-0.2,0.6-0.3,1.2-0.3,1.9
		c0,0.6,0.1,1.2,0.3,1.8c0.2,0.6,0.5,1.1,0.9,1.6c0.4,0.5,0.8,0.8,1.4,1.1c0.5,0.3,1.2,0.4,1.8,0.4c1,0,1.8-0.2,2.5-0.6
		c0.7-0.4,1.2-0.8,1.6-1.3L170.6,57.9z"/>
	<path d="M184.7,49.1c0-0.4-0.1-0.8-0.2-1.2c-0.2-0.4-0.4-0.8-0.7-1.1c-0.3-0.3-0.7-0.6-1.2-0.9c-0.5-0.2-1-0.3-1.7-0.3
		c-0.7,0-1.2,0.1-1.7,0.3c-0.5,0.2-0.9,0.5-1.2,0.9c-0.3,0.3-0.6,0.7-0.8,1.1c-0.2,0.4-0.3,0.8-0.3,1.2H184.7z M189.7,58.4
		c-0.2,0.1-0.5,0.4-1,0.7c-0.4,0.3-1,0.6-1.6,0.9c-0.7,0.3-1.5,0.5-2.4,0.8c-0.9,0.2-2,0.3-3.2,0.3c-1.6,0-3-0.2-4.3-0.7
		c-1.3-0.5-2.3-1.2-3.2-2c-0.9-0.9-1.6-1.9-2-3.2c-0.5-1.2-0.7-2.6-0.7-4.1c0-1.3,0.2-2.5,0.7-3.8c0.4-1.2,1.1-2.3,1.9-3.2
		c0.8-0.9,1.8-1.6,3-2.2c1.2-0.5,2.5-0.8,4.1-0.8c1.5,0,2.8,0.3,4,0.8c1.1,0.5,2.1,1.3,2.9,2.2c0.8,0.9,1.4,2.1,1.8,3.4
		c0.4,1.3,0.6,2.7,0.6,4.3v1h-13.3c0,1,0.5,1.9,1.3,2.6c0.9,0.8,2,1.1,3.6,1.1c1.5,0,2.7-0.2,3.6-0.7c0.9-0.4,1.6-0.8,2-1.1
		L189.7,58.4z"/>
	<polygon points="193.5,33.9 199.5,33.9 199.5,44.1 211,44.1 211,33.9 217,33.9 217,60.4 211,60.4 211,49.5 199.5,49.5 199.5,60.4 
		193.5,60.4 	"/>
	<path d="M221.2,41.8h5.7v10.7c0,1.1,0.3,1.9,0.8,2.5c0.5,0.6,1.3,0.9,2.3,0.9c0.6,0,1.1-0.1,1.5-0.3c0.5-0.2,0.8-0.5,1.2-0.9
		c0.3-0.4,0.6-0.8,0.7-1.3c0.2-0.5,0.2-1,0.2-1.5v-10h5.7v18.6h-5.5l-0.2-2c-0.6,0.7-1.4,1.3-2.4,1.8c-1,0.5-2,0.7-3.1,0.7
		c-2.1,0-3.8-0.6-5.1-1.9c-1.2-1.3-1.9-3.1-1.9-5.6V41.8z"/>
	<path d="M248.6,55.9c0.3,0.1,0.7,0.2,1.1,0.3c0.4,0.1,0.9,0.1,1.6,0.1c1.5,0,2.7-0.5,3.5-1.5c0.8-1,1.2-2.3,1.2-3.8
		c0-0.6-0.1-1.2-0.2-1.7c-0.1-0.6-0.4-1.1-0.7-1.5c-0.3-0.4-0.7-0.8-1.1-1.1c-0.5-0.3-1-0.4-1.7-0.4c-1.3,0-2.2,0.4-2.8,1.1
		c-0.6,0.7-0.9,1.6-0.9,2.8V55.9z M242.9,33.9h5.7v9.2c0.5-0.6,1.3-1,2.2-1.3c0.9-0.3,1.8-0.5,2.7-0.5c1.3,0,2.5,0.3,3.5,0.8
		c1,0.5,1.9,1.2,2.6,2c0.7,0.9,1.2,1.9,1.6,3c0.4,1.1,0.6,2.3,0.6,3.6c0,1.5-0.2,2.9-0.7,4.2c-0.5,1.3-1.2,2.4-2.1,3.3
		c-0.9,0.9-2.1,1.6-3.4,2.1c-1.3,0.5-2.9,0.8-4.6,0.8c-1.6,0-3.1-0.1-4.5-0.4c-1.4-0.3-2.6-0.6-3.5-0.9V33.9z"/>
	<polygon class="st0" points="257.7,2 257.7,21.7 282,39.6 282,19.8 	"/>
	<polygon class="st1" points="282,52 296.5,40.8 296.5,40.8 296.5,28.5 282,39.7 	"/>
</g>
<g id="Layer_2">
</g>
</svg>
